<svg width="120" height="63" viewBox="0 0 120 63" fill="none" xmlns="http://www.w3.org/2000/svg">
<path fill-rule="evenodd" clip-rule="evenodd" d="M86.458 0.67555C86.3514 0.851994 85.8459 1.82766 85.3348 2.84355C83.4843 6.52133 81.7548 8.75044 79.6606 10.1569C77.411 11.6677 75.5684 12.3228 71.6823 12.9927C69.7424 13.3273 68.4589 13.6323 67.3631 14.0193C65.7064 14.6044 62.0758 16.4595 61.2388 17.1488C60.5948 17.6791 60.5872 18.2367 61.217 18.7691C61.7665 19.2335 62.3631 19.2855 65.4911 19.1418C68.1592 19.0193 69.5119 19.1713 71.0686 19.7687C72.8339 20.4459 74.3959 22.0773 74.9923 23.8661C75.8453 26.425 74.7992 29.3694 72.4594 30.9964C71.5646 31.6187 71.4555 31.5535 72.0048 30.7254C72.591 29.8415 72.7605 29.2578 72.8061 27.9655C72.9242 24.6291 70.3265 21.9152 66.4002 21.2732C64.8545 21.0203 62.3133 21.2223 60.9325 21.7076C58.4126 22.5932 56.5446 23.9102 53.9201 26.6517C52.9308 27.685 51.5376 29.115 50.8241 29.8294C47.2459 33.4124 44.1398 34.8014 40.8452 34.2918C39.3312 34.0577 39.3383 34.0551 39.9623 34.6046C41.5307 35.9857 44.3334 36.27 46.7204 35.2903C48.2149 34.6771 49.814 33.5335 52.1805 31.3857C55.6514 28.2357 57.4176 27.21 59.8208 26.9482C62.0541 26.7051 64.1101 27.3493 65.7727 28.8132C67.0794 29.9639 67.7152 31.0867 67.8947 32.5613C68.1481 34.6411 67.5526 36.5275 66.1823 37.9857C65.2586 38.9689 65.3796 38.9885 67.5781 38.2113C70.4394 37.1999 72.4964 35.8619 74.5147 33.6995C77.2826 30.734 78.4598 27.477 78.2692 23.3122C78.1618 20.9698 77.864 19.7888 76.7929 17.46C75.7131 15.1123 76.0827 14.6741 80.811 12.6967C81.8694 12.254 83.372 11.56 84.1499 11.1543C86.1419 10.1158 87.3149 8.95477 86.3263 9.00022C86.1861 9.00666 85.3698 9.25455 84.5119 9.55144C83.6542 9.84799 82.9289 10.0378 82.9004 9.97277C82.837 9.82944 83.2174 9.04777 84.1872 7.32911C86.3905 3.42422 87.4654 0.910438 87.094 0.532327C86.8358 0.26955 86.6823 0.304105 86.458 0.67555ZM66.9576 2.20922C66.6771 2.4241 65.8735 3.16144 65.1718 3.84744L63.8959 5.09477L63.9519 4.04844C64.0339 2.51788 64.033 2.51388 63.6606 2.52877C63.2523 2.54522 63.2093 2.65966 63.036 4.19399C62.9516 4.94144 62.7334 6.11322 62.5513 6.79777C62.0588 8.64922 62.2098 9.86766 63.0235 10.6073C63.6155 11.1454 64.5181 11.4267 66.6692 11.7433C67.8133 11.9119 69.036 12.1703 69.3864 12.318C69.9379 12.5502 70.1743 12.5674 71.1477 12.4465C71.7663 12.3699 72.3026 12.2568 72.34 12.1952C72.4337 12.0407 71.6607 11.6051 71.0158 11.4492C70.7218 11.3783 69.9357 11.2711 69.2686 11.2111C66.3561 10.9487 64.7728 10.4935 64.131 9.73455C63.2026 8.63644 64.2207 6.39733 66.9599 3.5121C67.6553 2.77977 68.0239 2.27855 67.9831 2.12077C67.8863 1.74533 67.5218 1.77655 66.9576 2.20922Z" fill="#2F55D4"/>
<path d="M6.64332 62.6107C5.37302 62.6107 4.24006 62.4366 3.24441 62.0882C2.26594 61.74 1.49346 61.2571 0.926975 60.6397C0.377656 60.0065 0.102997 59.2861 0.102997 58.4788C0.102997 58.178 0.120163 57.9563 0.154496 57.8139H5.6391C5.62194 58.2097 5.7421 58.5026 5.99959 58.6924C6.27425 58.8824 6.64332 58.9774 7.10682 58.9774C7.39864 58.9774 7.64755 58.9141 7.85354 58.7874C8.07671 58.6608 8.18829 58.5104 8.18829 58.3363C8.18829 58.083 8.01663 57.8851 7.6733 57.7427C7.32998 57.5843 6.76349 57.4102 5.97384 57.2202C4.9782 56.9669 4.14564 56.7057 3.47616 56.4366C2.82384 56.1675 2.24877 55.7717 1.75095 55.2492C1.2703 54.711 1.02997 54.0144 1.02997 53.1596C1.02997 52.368 1.28747 51.6477 1.80246 50.9986C2.3346 50.3337 3.07275 49.8192 4.01689 49.4551C4.9782 49.0751 6.08542 48.8851 7.33855 48.8851C8.71186 48.8851 9.88773 49.0989 10.8662 49.5263C11.8619 49.9538 12.6086 50.5316 13.1064 51.2598C13.6042 51.988 13.836 52.7954 13.8017 53.682H8.72902C8.72902 53.3179 8.60885 53.0408 8.36853 52.8508C8.1282 52.645 7.7763 52.5421 7.31281 52.5421C7.02099 52.5421 6.77207 52.5976 6.56608 52.7083C6.37725 52.8192 6.28283 52.9696 6.28283 53.1596C6.28283 53.397 6.45449 53.5949 6.79782 53.7532C7.14114 53.8957 7.72479 54.0857 8.54877 54.3231C9.56158 54.5922 10.3941 54.8613 11.0465 55.1306C11.7159 55.3838 12.2996 55.7717 12.7975 56.2941C13.2952 56.8007 13.5441 57.4498 13.5441 58.2413C13.5441 59.6187 12.9004 60.6951 11.613 61.4709C10.3426 62.2308 8.68611 62.6107 6.64332 62.6107ZM15.4265 55.7479C15.7011 54.339 16.1989 53.12 16.9199 52.0909C17.6408 51.0461 18.5078 50.2546 19.5206 49.7163C20.5334 49.1622 21.6063 48.8851 22.7393 48.8851C23.6834 48.8851 24.4645 49.0672 25.0824 49.4313C25.7005 49.7796 26.1296 50.2625 26.3699 50.8799L26.7304 49.0513H32.421L29.846 62.4444H24.1555L24.516 60.616C24.0353 61.2333 23.4174 61.7241 22.662 62.0882C21.9067 62.4366 21.057 62.6107 20.1129 62.6107C18.6537 62.6107 17.4778 62.1595 16.5852 61.2571C15.6925 60.3548 15.2463 59.1041 15.2463 57.5051C15.2463 56.9036 15.3063 56.3179 15.4265 55.7479ZM25.4429 55.7479C25.4772 55.6055 25.4945 55.4154 25.4945 55.178C25.4945 54.6398 25.34 54.2281 25.031 53.9432C24.7219 53.6423 24.3014 53.492 23.7693 53.492C23.1512 53.492 22.6019 53.6899 22.1213 54.0857C21.6578 54.4814 21.3574 55.0356 21.22 55.7479C21.1858 55.8905 21.1686 56.0803 21.1686 56.3179C21.1686 56.8561 21.323 57.2757 21.632 57.5764C21.9411 57.8613 22.3616 58.0039 22.8937 58.0039C23.5118 58.0039 24.0525 57.806 24.516 57.4102C24.9966 57.0145 25.3057 56.4603 25.4429 55.7479ZM41.5025 44.872L38.1293 62.4444H32.413L35.7861 44.872H41.5025ZM49.0281 57.4339L52.9677 49.0513H59.0446L51.6288 62.4444H44.4963L42.2302 49.0513H48.3071L49.0281 57.4339ZM58.5012 55.7479C58.7759 54.339 59.2737 53.12 59.9947 52.0909C60.7157 51.0461 61.5827 50.2546 62.5954 49.7163C63.6082 49.1622 64.6811 48.8851 65.8141 48.8851C66.7582 48.8851 67.5393 49.0672 68.1572 49.4313C68.7753 49.7796 69.2043 50.2625 69.4447 50.8799L69.8052 49.0513H75.4958L72.9208 62.4444H67.2302L67.5907 60.616C67.1101 61.2333 66.4922 61.7241 65.7369 62.0882C64.9816 62.4366 64.1318 62.6107 63.1876 62.6107C61.7286 62.6107 60.5527 62.1595 59.66 61.2571C58.7674 60.3548 58.321 59.1041 58.321 57.5051C58.321 56.9036 58.3811 56.3179 58.5012 55.7479ZM68.5177 55.7479C68.5521 55.6055 68.5693 55.4154 68.5693 55.178C68.5693 54.6398 68.4147 54.2281 68.1058 53.9432C67.7968 53.6423 67.3762 53.492 66.8441 53.492C66.226 53.492 65.6767 53.6899 65.1961 54.0857C64.7327 54.4814 64.4322 55.0356 64.2948 55.7479C64.2605 55.8905 64.2434 56.0803 64.2434 56.3179C64.2434 56.8561 64.3978 57.2757 64.7069 57.5764C65.0158 57.8613 65.4364 58.0039 65.9686 58.0039C66.5865 58.0039 67.1272 57.806 67.5907 57.4102C68.0714 57.0145 68.3804 56.4603 68.5177 55.7479ZM88.2337 48.9564C89.6413 48.9564 90.7228 49.3363 91.4781 50.0962C92.2334 50.8403 92.6111 51.8693 92.6111 53.1833C92.6111 53.6582 92.5595 54.1569 92.4566 54.6793L90.9631 62.4444H85.2725L86.6372 55.3442C86.6716 55.0909 86.6887 54.9168 86.6887 54.8218C86.6887 54.331 86.5342 53.9511 86.2252 53.682C85.9334 53.4129 85.5215 53.2782 84.9893 53.2782C84.3713 53.2782 83.8477 53.4603 83.4186 53.8244C82.9894 54.1886 82.7061 54.6872 82.5688 55.3204L81.2041 62.4444H75.4877L78.0627 49.0513H83.779L83.3928 51.0699C83.9593 50.4366 84.6546 49.93 85.4786 49.55C86.3025 49.1542 87.2209 48.9564 88.2337 48.9564ZM99.1068 47.9828C98.2141 47.9828 97.5102 47.7849 96.9953 47.3891C96.4975 46.9933 96.2486 46.4788 96.2486 45.8456C96.2486 45.2914 96.4117 44.777 96.7378 44.302C97.064 43.8271 97.5189 43.4551 98.1025 43.186C98.7034 42.901 99.3642 42.7586 100.085 42.7586C100.961 42.7586 101.647 42.9643 102.145 43.3759C102.66 43.7717 102.918 44.2941 102.918 44.9432C102.918 45.4973 102.755 46.0039 102.428 46.463C102.102 46.9221 101.647 47.2941 101.064 47.5791C100.48 47.8482 99.8277 47.9828 99.1068 47.9828ZM101.733 49.0513L99.1582 62.4444H93.4419L96.0169 49.0513H101.733ZM113.636 55.9379L117.653 62.4444H111.267L109.413 59.4287L106.993 62.4444H100.71L106.941 55.3917L103.027 49.0513H109.413L111.267 52.0909L113.714 49.0513H119.996L113.636 55.9379Z" fill="#202942"/>
</svg>
