<svg width="996" height="774" viewBox="0 0 996 774" fill="none" xmlns="http://www.w3.org/2000/svg">
<path fill-rule="evenodd" clip-rule="evenodd" d="M717.601 132.08C716.717 133.668 712.521 142.449 708.279 151.592C692.92 184.692 678.565 204.754 661.183 217.412C642.511 231.009 627.218 236.905 594.963 242.934C578.862 245.946 568.209 248.691 559.114 252.174C545.363 257.44 515.229 274.136 508.282 280.339C502.937 285.112 502.874 290.13 508.101 294.922C512.662 299.102 517.614 299.57 543.576 298.276C565.721 297.174 576.949 298.542 589.869 303.918C604.521 310.013 617.486 324.696 622.436 340.795C629.516 363.825 620.833 390.325 601.413 404.968C593.986 410.568 593.081 409.982 597.64 402.529C602.505 394.574 603.912 389.32 604.291 377.69C605.271 347.662 583.71 323.237 551.122 317.459C538.292 315.183 517.2 317.001 505.74 321.368C484.825 329.339 469.32 341.192 447.537 365.865C439.326 375.165 427.762 388.035 421.84 394.465C392.141 426.712 366.36 439.213 339.015 434.626C326.449 432.519 326.508 432.496 331.687 437.441C344.705 449.871 367.967 452.43 387.779 443.613C400.184 438.094 413.456 427.802 433.098 408.471C461.907 380.121 476.566 370.89 496.513 368.534C515.049 366.346 532.114 372.144 545.913 385.319C556.759 395.675 562.036 405.78 563.526 419.052C565.629 437.77 560.687 454.748 549.313 467.871C541.646 476.72 542.651 476.897 560.898 469.902C584.647 460.799 601.72 448.757 618.472 429.296C641.446 402.606 651.216 373.293 649.634 335.81C648.743 314.728 646.271 304.099 637.381 283.14C628.419 262.011 631.486 258.067 670.731 240.27C679.516 236.286 691.988 230.04 698.444 226.389C714.978 217.042 724.714 206.593 716.508 207.002C715.345 207.06 708.569 209.291 701.449 211.963C694.33 214.632 688.31 216.34 688.073 215.755C687.547 214.465 690.704 207.43 698.754 191.962C717.041 156.818 725.963 134.194 722.88 130.791C720.737 128.426 719.463 128.737 717.601 132.08ZM555.748 145.883C553.42 147.817 546.75 154.453 540.926 160.627L530.336 171.853L530.801 162.436C531.481 148.661 531.474 148.625 528.383 148.759C524.994 148.907 524.637 149.937 523.199 163.746C522.498 170.473 520.687 181.019 519.176 187.18C515.088 203.843 516.341 214.809 523.095 221.466C528.009 226.309 535.5 228.84 553.354 231.69C562.85 233.207 572.999 235.533 575.907 236.862C580.485 238.952 582.447 239.107 590.526 238.019C595.66 237.329 600.112 236.311 600.422 235.757C601.2 234.366 594.784 230.446 589.431 229.043C586.991 228.405 580.466 227.44 574.929 226.9C550.756 224.538 537.614 220.442 532.287 213.611C524.582 203.728 533.032 183.576 555.767 157.609C561.539 151.018 564.598 146.507 564.26 145.087C563.456 141.708 560.431 141.989 555.748 145.883Z" fill="#3C79F5"/>
<path d="M55.1396 689.496C44.5961 689.496 35.1925 687.929 26.9286 684.794C18.8073 681.66 12.3957 677.314 7.6939 671.757C3.13455 666.058 0.854878 659.575 0.854878 652.309C0.854878 649.602 0.997357 647.607 1.28232 646.325H46.8045C46.6621 649.887 47.6594 652.523 49.7966 654.232C52.0763 655.942 55.1396 656.797 58.9866 656.797C61.4087 656.797 63.4747 656.227 65.1844 655.087C67.0367 653.947 67.9628 652.594 67.9628 651.027C67.9628 648.747 66.538 646.966 63.6884 645.684C60.8388 644.259 56.137 642.692 49.5829 640.982C41.3191 638.702 34.4088 636.351 28.8521 633.929C23.4379 631.507 18.6648 627.945 14.5329 623.243C10.5435 618.399 8.54878 612.13 8.54878 604.436C8.54878 597.312 10.686 590.829 14.9604 584.987C19.3772 579.003 25.5038 574.373 33.3402 571.096C41.3191 567.676 50.509 565.966 60.91 565.966C72.3084 565.966 82.0682 567.89 90.1896 571.737C98.4534 575.584 104.651 580.784 108.783 587.338C112.915 593.892 114.839 601.159 114.554 609.138H72.4509C72.4509 605.861 71.4535 603.367 69.4588 601.657C67.4641 599.805 64.5433 598.879 60.6963 598.879C58.2742 598.879 56.2082 599.378 54.4985 600.375C52.9312 601.373 52.1475 602.726 52.1475 604.436C52.1475 606.573 53.5723 608.354 56.4219 609.779C59.2715 611.061 64.1158 612.771 70.9548 614.908C79.3611 617.33 86.2714 619.752 91.6856 622.175C97.2423 624.454 102.087 627.945 106.219 632.647C110.35 637.206 112.416 643.048 112.416 650.172C112.416 662.568 107.073 672.256 96.3875 679.238C85.844 686.077 72.0947 689.496 55.1396 689.496ZM128.04 627.731C130.319 615.051 134.451 604.08 140.435 594.818C146.419 585.415 153.615 578.291 162.021 573.447C170.427 568.46 179.332 565.966 188.736 565.966C196.572 565.966 203.055 567.605 208.184 570.882C213.314 574.016 216.876 578.362 218.87 583.919L221.862 567.462H269.094L247.722 688H200.491L203.483 671.544C199.493 677.1 194.364 681.517 188.095 684.794C181.826 687.929 174.773 689.496 166.937 689.496C154.826 689.496 145.066 685.435 137.657 677.314C130.248 669.193 126.544 657.937 126.544 643.546C126.544 638.132 127.042 632.861 128.04 627.731ZM211.176 627.731C211.461 626.449 211.604 624.739 211.604 622.602C211.604 617.758 210.322 614.053 207.757 611.489C205.192 608.781 201.702 607.428 197.285 607.428C192.155 607.428 187.596 609.209 183.607 612.771C179.76 616.333 177.266 621.32 176.126 627.731C175.842 629.014 175.699 630.723 175.699 632.861C175.699 637.705 176.981 641.481 179.546 644.188C182.111 646.752 185.601 648.035 190.018 648.035C195.148 648.035 199.636 646.254 203.483 642.692C207.472 639.13 210.037 634.143 211.176 627.731ZM344.471 529.848L316.473 688H269.028L297.025 529.848H344.471ZM406.933 642.905L439.632 567.462H490.07L428.519 688H369.319L350.511 567.462H400.949L406.933 642.905ZM485.56 627.731C487.84 615.051 491.972 604.08 497.956 594.818C503.94 585.415 511.136 578.291 519.542 573.447C527.948 568.46 536.853 565.966 546.257 565.966C554.093 565.966 560.576 567.605 565.705 570.882C570.835 574.016 574.396 578.362 576.391 583.919L579.383 567.462H626.615L605.243 688H558.011L561.003 671.544C557.014 677.1 551.885 681.517 545.616 684.794C539.347 687.929 532.294 689.496 524.457 689.496C512.347 689.496 502.587 685.435 495.178 677.314C487.769 669.193 484.064 657.937 484.064 643.546C484.064 638.132 484.563 632.861 485.56 627.731ZM568.697 627.731C568.982 626.449 569.125 624.739 569.125 622.602C569.125 617.758 567.842 614.053 565.278 611.489C562.713 608.781 559.222 607.428 554.806 607.428C549.676 607.428 545.117 609.209 541.128 612.771C537.281 616.333 534.787 621.32 533.647 627.731C533.362 629.014 533.22 630.723 533.22 632.861C533.22 637.705 534.502 641.481 537.067 644.188C539.631 646.752 543.122 648.035 547.539 648.035C552.668 648.035 557.156 646.254 561.003 642.692C564.993 639.13 567.557 634.143 568.697 627.731ZM732.34 566.608C744.023 566.608 752.999 570.027 759.268 576.866C765.537 583.563 768.672 592.824 768.672 604.65C768.672 608.924 768.244 613.412 767.39 618.114L754.994 688H707.762L719.089 624.098C719.374 621.818 719.516 620.251 719.516 619.396C719.516 614.979 718.234 611.56 715.669 609.138C713.247 606.716 709.828 605.504 705.411 605.504C700.282 605.504 695.936 607.143 692.374 610.42C688.812 613.697 686.461 618.185 685.321 623.884L673.994 688H626.548L647.92 567.462H695.366L692.16 585.629C696.862 579.929 702.633 575.37 709.472 571.95C716.311 568.388 723.933 566.608 732.34 566.608ZM822.586 557.845C815.177 557.845 809.335 556.064 805.061 552.502C800.929 548.94 798.863 544.309 798.863 538.61C798.863 533.623 800.217 528.993 802.924 524.718C805.631 520.444 809.407 517.096 814.251 514.674C819.238 512.109 824.723 510.827 830.707 510.827C837.974 510.827 843.673 512.679 847.805 516.383C852.079 519.945 854.216 524.647 854.216 530.489C854.216 535.476 852.863 540.035 850.156 544.167C847.449 548.299 843.673 551.647 838.829 554.212C833.984 556.634 828.57 557.845 822.586 557.845ZM844.385 567.462L823.013 688H775.568L796.94 567.462H844.385ZM943.18 629.441L976.521 688H923.518L908.13 660.858L888.041 688H835.893L887.613 624.525L855.128 567.462H908.13L923.518 594.818L943.822 567.462H995.969L943.18 629.441Z" fill="black"/>
</svg>
